# xmcd
#
# Track frame offsets: 
#        150
#        18818
#        42718
#        55762
#        76440
#        105576
#        125612
#        140830
#        161581
#        177826
#        200814
#        219741
#        239456
#        254997
#        271278
#        300174
#        321006
#
# Disc length: 4784 seconds
#
# Revision: 2
# Processed by: cddbd v1.5.2PL0 Copyright (c) Steve Scherf et al.
# Submitted via: ExactAudioCopy v1.0b3
#
DISCID=fc12ae11
DTITLE=Various Artist - Akella Presents - Vol.40 - Women's Blues  CD2
DYEAR=2014
DGENRE=Blues
TTITLE0=Dana Gillespie - You Blue It
TTITLE1=Sista Monica Parker - I Am A Woman
TTITLE2=Long Tall Deb - Train To Tucson
TTITLE3=Norah Jones - All Your Love 
TTITLE4=Swamp Mama Johnson - Voodoo Angel
TTITLE5=Tamara Peterson - I Wanna Know What Good Love Is
TTITLE6=Samantha Fish - Who's Been Talking
TTITLE7=Ruth Brown - Good Day For The Blues
TTITLE8=Mojo Juju - Brother, Where Have You Been
TTITLE9=Dana Gillespie - Blues Line 
TTITLE10=Tineke Schoemaker - Oh Death
TTITLE11=Duffy Bishop - How Can I Forgive Him
TTITLE12=Maggie Bell - Wishing Well
TTITLE13=Jessy Martens and Band - Stranger
TTITLE14=Laurie LaCross - Man On Fire 
TTITLE15=Shakura S'Aida - Geechee Woman
TTITLE16=Layla Zoe - Father
EXTD=
EXTT0=
EXTT1=
EXTT2=
EXTT3=
EXTT4=
EXTT5=
EXTT6=
EXTT7=
EXTT8=
EXTT9=
EXTT10=
EXTT11=
EXTT12=
EXTT13=
EXTT14=
EXTT15=
EXTT16=
PLAYORDER=
